<svg id="Layer_1" data-name="Layer 1" xmlns="http://www.w3.org/2000/svg" viewBox="0 0 426 500"><defs><style>.cls-1{fill:#0071bc;}.cls-2{fill:#3fa9f5;}</style></defs><title>apmis_vector</title><path id="top" class="cls-1" d="M111.14,134.3c7.49,0,11.23-2.5,12.48-10V27c1-11.62,7.17-19,21.22-20h141c12.82,1.17,21.32,6.78,22.47,20l-1.25,92.36c.21,10.47,4.74,17,18.72,15H400.7c11.7,3.1,17.72,9.23,17.47,18.72v59.91c1,11.08-3.11,16.94-13.73,16.23H278.39c-8.31,12.89-13.46,12.35-16,.48-12.43-42.5-21.85-53.05-25.22.76l-3.74,51.17c-1,27.53-4.16,24.71-8.74,1.25l-2.5-12.48-3.74-25-3.74-27.46L211,194.21l-5-25c-14.07-71.69-26.52-75.85-36.19,1.25l-2.5,16.23c-3.74,30,2.5,39.94-41.19,41.19H20c-10,0-11.23-5-11.23-12.48v-64.9c.76-8,5.84-13.59,16.23-16.23Z"/><path id="bottom" class="cls-2" d="M8.8,260.36c0-7.49,3.14-10.73,12.48-11.23h129.8c12.58-.23,20-6.24,21.22-23.71L176,196.71c5.31-33.72,11.52-36.66,18.72-1.25L206,254.12l8.74,46.18c11.35,62.35,22,76.62,31.2,0l6.24-56.16c8.51,20.94,16.81,35.29,23.71,5l129.8-1.25c10,0,12.48,6.24,12.48,17.47v59.91c-.48,10.73-6.24,17.47-17.47,17.47H323.32c-13.73-1.25-15,5-15,17.47l-1.25,111.08c0,16.23-7.49,23.71-22.47,23.71H149.83c-18.72,0-26.21-5-26.21-25V357.71c0-11.23-3.74-15-15-15H27.52C10,341.49,8.8,331.5,8.8,319Z"/></svg>