<svg xmlns="http://www.w3.org/2000/svg" viewBox="0 0 1072 905"><defs><style>.cls-1,.cls-2{fill:#fff;}.cls-2,.cls-3,.cls-4,.cls-5{stroke:#c4cfe8;}.cls-2,.cls-3,.cls-4,.cls-5,.cls-6{stroke-miterlimit:10;}.cls-2{stroke-width:3px;}.cls-3,.cls-4,.cls-5{fill:none;}.cls-3{stroke-width:2px;}.cls-5{stroke-width:0.5px;}.cls-6{fill:#5c7ee5;stroke:#fff;stroke-width:5px;}</style></defs><title>Asset 9_apmis</title><g id="Layer_2" data-name="Layer 2"><g id="APMIS"><rect class="cls-1" width="1072" height="905"/><ellipse class="cls-2" cx="530" cy="473.08" rx="461.39" ry="272.77"/><ellipse class="cls-3" cx="530" cy="475.98" rx="406.26" ry="269.87"/><ellipse class="cls-4" cx="530" cy="475.98" rx="339.52" ry="269.87"/><ellipse class="cls-3" cx="530" cy="474.53" rx="458.49" ry="226.34"/><ellipse class="cls-4" cx="530" cy="473.08" rx="461.39" ry="165.4"/><ellipse class="cls-5" cx="530" cy="471.63" rx="461.39" ry="75.45"/><polygon class="cls-6" points="410.71 469.89 473.45 344.42 595.62 562.34 645.14 469.89 831.7 469.89 831.7 344.42 660 344.42 660 96.79 409.06 96.79 409.06 344.42 240.67 344.42 240.67 469.89 410.71 469.89"/><polygon class="cls-6" points="652.4 493.01 594.3 606.92 469.79 380.74 415 489.7 237.37 489.7 237.37 595.36 409.06 595.36 409.06 843 660 843 660 595.36 831.7 595.36 831.7 493.01 652.4 493.01"/></g></g></svg>