<svg width="10" height="11" viewBox="0 0 10 11" fill="none" xmlns="http://www.w3.org/2000/svg">
<path fill-rule="evenodd" clip-rule="evenodd" d="M7.34002 4.17001C7.34002 5.92076 5.92076 7.34002 4.17001 7.34002C2.41926 7.34002 1 5.92076 1 4.17001C1 2.41926 2.41926 1 4.17001 1C5.92076 1 7.34002 2.41926 7.34002 4.17001ZM8.34002 4.17001C8.34002 6.47304 6.47304 8.34002 4.17001 8.34002C1.86698 8.34002 0 6.47304 0 4.17001C0 1.86698 1.86698 0 4.17001 0C6.47304 0 8.34002 1.86698 8.34002 4.17001ZM6.57038 7.62289L8.65538 10.0554L9.41464 9.40461L7.32963 6.9721L6.57038 7.62289Z" fill="#878484"/>
</svg>
